<svg xmlns="http://www.w3.org/2000/svg" xmlns:xlink="http://www.w3.org/1999/xlink" id="Layer_1" width="1400" height="980" x="0" y="0" enable-background="new 0 0 1400 980" version="1.1" viewBox="0 0 1400 980" xml:space="preserve"><rect width="1400" height="982" y="-1" fill="#9DCB8D"/><g opacity=".3"><path fill="#009393" d="M382,414c0-13,0-26.736,0-40.266c0-6.688,0-13.375,0-20.062c0-10.552,6.834-19.133,17.883-19.133 c10.747,0,18.117,7.476,18.117,18.285c0,6.569,0,13.138,0,19.707c0,0.002,0,0.005,0,0.007c0,11.625,0,23.25,0,34.875 c0,4.439-0.02,8.854,0.695,13.247c1.506,9.244,11.064,15.191,19.847,15.191c9.112,0,16.165-5.331,19.427-13.647 c1.693-4.316,1.031-10.255,1.031-14.791c0-11.627,0-23.255,0-34.882c0-19.418,0-38.531,0-58.531h0.916 c7.269,0,13.084-6.25,13.084-13.518v-1.213c11-3.214,19-13.297,19-25.247V248h-10c0-8,0-17,0-26c0-6-9-6-9,0c0,9,0,18,0,26h-14 c0-5,0-11,0-17s-9-6-9,0s0,12,0,17h-13c0-8,0-17,0-26c0-6-8-6-8,0c0,9,0,18,0,26h-12v26.022c0,11.994,8,22.107,19,25.282v1.178 c0,7.268,5.68,13.518,12.948,13.518H450c0,20,0,39.113,0,58.531c0,9.356,0,18.712,0,28.069c0,4.777,0,9.553,0,14.33 c-1,6.515-3.227,12.057-11.381,12.057c-8.28,0-10.893-5.714-11.539-12.359c0.007-0.104-0.08-0.197-0.08-0.305 c0-4.574,0-9.148,0-13.722c0-9.356,0-18.713,0-28.069c0-1.536,0-3.071,0-4.606c0-5.413,0-10.826,0-16.239 c0-14.026-10.724-24.307-24.123-25.94c-12.816-1.562-24.087,6.307-28.72,17.941c-2.231,5.604-1.157,13.069-1.157,18.986 c0,16.951,0,33.901,0,50.851c0,0.267,0,0.476,0,0.476C373,420,382,420,382,414z"/><path fill="#009393" d="M1331,520V239.356c0-12.408-9.819-22.356-22.227-22.356H851.976C839.569,217,830,226.948,830,239.356V520 h-45v17.023C785,549.431,799.629,559,812.036,559h537.3c12.409,0,24.664-9.569,24.664-21.977V520H1331z"/><path fill="#009393" d="M311.199,197H77.65C66.454,197,58,205.965,58,217.163V818h34.106h204.637H331V217.163 C331,205.965,322.395,197,311.199,197z"/><path fill="#009393" d="M523.267,349h134.071c10.384,0,19.299-7,23.158-15h72.962c17.484,0,31.66-14.515,31.66-32 s-14.176-32-31.66-32h-0.955c0.065-1,0.11-1.689,0.11-2.599c0-20.007-16.218-36.173-36.225-36.173 c-8.479,0-16.27,2.947-22.441,7.828c-9.19-20.754-29.952-35.227-54.11-35.227c-31.326,0-56.949,24.356-59.014,55.159 c-4.262,4.16-7.741,9.121-10.187,14.644c-4.913-3.885-11.114-6.256-17.863-6.256c-15.925,0-28.834,12.777-28.834,28.702 c0,0.725,0.037,1.922,0.089,1.922h-0.76c-13.918,0-25.202,11.581-25.202,25.5C498.065,337.418,509.349,349,523.267,349z"/><path fill="#009393" d="M786.723,684.77l0.135-0.102l-3.115-3.581l-2.717-3.123l-0.094,0.07 c-14.044-14.451-33.339-22.663-53.57-22.663c-20.23,0-39.526,8.212-53.569,22.663l-0.094-0.07l-2.716,3.123l-3.115,3.581 l0.135,0.273C658.973,696.756,653.675,711,652.792,726H653v4.09V735h-0.208c0.872,14,6.035,28.434,14.826,40.146l-0.129-0.021 l3.023,3.484l2.738,3.179l0.096-0.09c14.081,14.744,33.536,23.117,54.015,23.117c20.48,0,39.935-8.384,54.016-23.128l0.097,0.072 l2.737-3.209l3.023-3.545l-0.129-0.1c9.678-12.893,14.974-28.627,14.974-44.816C802.079,713.669,796.647,697.758,786.723,684.77z"/><path fill="#009393" d="M586.077,744h-44.324c-5.411,0-10.09,3-12.397,7h-22.803c-3.322-30-29.001-53.692-60.097-53.692 c-33.345,0-60.471,27.192-60.471,60.535c0,33.345,27.126,60.542,60.471,60.542c31.314,0,57.141-24.385,60.17-54.385h22.729 c2.307,4,6.987,8,12.397,8h44.324c7.694,0,13.931-6.307,13.931-14S593.771,744,586.077,744z"/><path fill="#009393" d="M1336.616,720.209c-7.929,0-15.214,2.733-20.983,7.3c-16.354-16.354-32.709-32.708-49.063-49.062 c5.88-6.089,9.503-14.37,9.503-23.501c0-18.691-15.154-33.845-33.846-33.845c-18.689,0-33.843,15.153-33.843,33.845 c0,8.09,2.843,15.514,7.578,21.337c-17.169,17.168-34.337,34.336-51.505,51.505c-5.822-4.736-13.247-7.579-21.336-7.579 c-7.733,0-14.856,2.6-20.556,6.964c-16.372-16.372-32.745-32.745-49.118-49.117c5.658-6.05,9.129-14.173,9.129-23.109 c0-18.691-15.153-33.845-33.844-33.845s-33.844,15.153-33.844,33.845c0,8.09,2.843,15.514,7.578,21.337 c-17.168,17.168-34.336,34.336-51.504,51.504c-5.823-4.735-13.247-7.578-21.338-7.578c-7.732,0-14.854,2.599-20.554,6.964 c-16.788-16.788-33.577-33.576-50.365-50.365c4.998-5.898,8.018-13.525,8.018-21.861c0-18.691-15.154-33.845-33.845-33.845 c-18.691,0-33.845,15.153-33.845,33.845c0,18.69,15.153,33.846,33.845,33.846c8.046,0,15.433-2.813,21.24-7.504 c16.75,16.75,33.499,33.499,50.249,50.248c-5.338,5.982-8.586,13.869-8.586,22.518c0,18.69,15.153,33.844,33.843,33.844 c18.692,0,33.846-15.153,33.846-33.844c0-8.292-2.987-15.884-7.938-21.77c17.144-17.144,34.286-34.287,51.43-51.432 c5.886,4.952,13.478,7.939,21.77,7.939c7.441,0,14.318-2.408,19.905-6.48c16.408,16.408,32.816,32.816,49.225,49.224 c-5.338,5.983-8.587,13.87-8.587,22.519c0,18.69,15.153,33.844,33.846,33.844c18.688,0,33.844-15.153,33.844-33.844 c0-8.292-2.987-15.884-7.938-21.77c17.144-17.144,34.288-34.287,51.432-51.432c5.885,4.952,13.477,7.939,21.769,7.939 c7.246,0,13.954-2.285,19.461-6.163c16.438,16.438,32.877,32.877,49.315,49.314c-5.126,5.932-8.233,13.656-8.233,22.11 c0,18.69,15.154,33.844,33.847,33.844c18.688,0,33.843-15.153,33.843-33.844C1370.459,735.362,1355.305,720.209,1336.616,720.209z"/><path fill="#009393" d="M573,662.517V524.533L520.351,472h-19.196h-97.915h-20.875c-4.243,0-7.366,3.773-7.366,8.017v182.5 c0,4.244,3.123,7.483,7.366,7.483h182.502C569.11,670,573,666.761,573,662.517z"/><path fill="#009393" d="M676.969,509.771c1.344,1.345,3.522,1.345,4.866,0l8.323-8.321c1.344-1.346,1.343-3.523,0-4.867 l-6.517-6.353c5.031-7.113,8.503-15.229,9.888-24.229h9.048c1.899,0,3.424-1.871,3.424-3.771v-11.771 c0-1.9-1.524-3.459-3.424-3.459h-9.223c-1.536-9-5.126-17.176-10.279-24.207l6.423-6.418c1.344-1.345,1.344-3.521,0-4.864 l-8.323-8.323c-1.344-1.342-3.522-1.342-4.867,0l-6.71,6.546c-6.858-4.844-14.598-8.222-23.598-9.69v-9.273 c0-1.902-1.21-3.772-3.111-3.772h-11.771c-1.901,0-3.119,1.871-3.119,3.772v9.12c-9,1.39-17.398,4.857-24.494,9.877l-6.66-6.58 c-1.344-1.344-3.563-1.344-4.907,0l-8.343,8.324c-1.344,1.342-1.354,3.521-0.01,4.866l6.465,6.462 c-5.134,7.018-8.718,15.158-10.25,24.158H570.5c-1.901,0-3.5,1.559-3.5,3.459v11.771c0,1.9,1.599,3.771,3.5,3.771h9.128 c1.38,9,4.84,17.079,9.854,24.182l-6.564,6.482c-1.345,1.344-1.345,3.481,0,4.826l8.323,8.301c1.344,1.345,3.522,1.335,4.866-0.01 l6.604-6.448c7.269,5.33,15.29,8.996,25.29,10.438v9.078c0,1.899,1.218,3.15,3.119,3.15h11.771c1.9,0,3.111-1.251,3.111-3.15v-9.23 c9-1.527,17.359-5.11,24.395-10.256L676.969,509.771z M636.578,490.893c-18.812,0-34.061-15.25-34.061-34.061 c0-18.812,15.25-34.062,34.061-34.062c18.813,0,34.062,15.25,34.062,34.062C670.64,475.643,655.39,490.893,636.578,490.893z"/><path fill="#009393" d="M665.878,579.875l-5.376,5.345c-1.101,1.101-1.101,2.87,0,3.969l6.814,6.808 c1.101,1.101,2.884,1.096,3.984-0.004l5.201-5.276c5.95,4.363,12.499,7.368,20.499,8.548v7.433c0,1.557,1.413,2.304,2.969,2.304 h9.637c1.558,0,3.395-0.747,3.395-2.304v-7.556c7-1.25,13.791-4.185,19.551-8.398l5.104,5.247c1.1,1.101,2.813,1.101,3.91,0 l6.781-6.815c1.101-1.1,1.081-2.884-0.018-3.983l-5.346-5.276c4.12-5.824,6.953-12.914,8.087-19.914h7.407 c1.557,0,2.523-1.382,2.523-2.938v-9.637c0-1.557-0.967-3.425-2.523-3.425h-7.55c-1.259-7-4.197-13.769-8.417-19.523l5.26-5.107 c1.1-1.102,1.1-2.809,0-3.909l-6.814-6.776c-1.1-1.1-2.885-1.081-3.985,0.02l-5.071,5.368c-5.615-3.965-11.898-6.722-18.898-7.925 v-7.593c0-1.556-1.837-2.554-3.395-2.554h-9.637c-1.556,0-2.969,0.998-2.969,2.554v7.467c-7,1.141-14.039,3.979-19.849,8.089 l-5.348-5.389c-1.102-1.1-2.865-1.1-3.965,0l-6.805,6.816c-1.1,1.099-1.097,2.882,0.004,3.984l5.3,4.993 c-4.204,5.748-7.131,12.485-8.385,19.485h-7.618c-1.557,0-3.334,1.868-3.334,3.425v9.637c0,1.557,1.778,2.938,3.334,2.938h7.473 C658.939,567,661.771,574.059,665.878,579.875z M704.438,524.754c15.403,0,27.89,12.486,27.89,27.889 c0,15.403-12.486,27.889-27.89,27.889c-15.402,0-27.889-12.485-27.889-27.889C676.549,537.24,689.037,524.754,704.438,524.754z"/></g><g><g><g><g><path fill="#586875" d="M435.033,215.693c0,10.131,0,20.263,0,30.394c0,5.716,8.865,5.716,8.865,0c0-10.131,0-20.263,0-30.394 C443.898,209.977,435.033,209.977,435.033,215.693L435.033,215.693z"/></g></g><g><g><g><path fill="#586875" d="M413.504,206.829c0,10.976,0,21.951,0,32.927c0,5.717,8.865,5.717,8.865,0c0-10.976,0-21.951,0-32.927 C422.369,201.112,413.504,201.112,413.504,206.829L413.504,206.829z"/></g></g><g><g><path fill="#586875" d="M457.829,206.829c0,10.976,0,21.951,0,32.927c0,5.717,8.865,5.717,8.865,0c0-10.976,0-21.951,0-32.927 C466.693,201.112,457.829,201.112,457.829,206.829L457.829,206.829z"/></g></g></g></g><g><g><path fill="#586875" d="M435.033,289.146c0,37.148,0,74.295,0,111.443c0,5.717,8.865,5.717,8.865,0c0-37.148,0-74.295,0-111.443 C443.898,283.428,435.033,283.428,435.033,289.146L435.033,289.146z"/></g></g><g><g><path fill="#586875" d="M435.033,357.531c0,9.356,0,18.712,0,28.069c0,9.475,2.85,26.387-11.397,26.387 s-11.398-16.912-11.398-26.387c0-9.356,0-18.713,0-28.069c0-5.717-8.865-5.717-8.865,0c0,11.627,0,23.255,0,34.882 c0,4.439-0.207,8.854,0.509,13.247c1.506,9.244,10.971,15.191,19.754,15.191c9.112,0,16.067-5.331,19.329-13.647 c1.693-4.316,0.933-10.255,0.933-14.791c0-11.627,0-23.255,0-34.882C443.898,351.814,435.033,351.814,435.033,357.531 L435.033,357.531z"/></g></g><g><g><path fill="#586875" d="M366.647,399.322c0-13.53,0-27.059,0-40.588c0-6.688,0-13.375,0-20.062 c0-10.552,7.197-19.133,18.246-19.133c10.747,0,18.479,7.476,18.479,18.285c0,6.572,0,13.143,0,19.714 c0,13.928,0,27.856,0,41.784c0,5.717,8.865,5.717,8.865,0c0-15.466,0-30.932,0-46.397c0-5.413,0-10.826,0-16.239 c0-14.026-10.842-24.307-24.242-25.94c-12.816-1.562-24.256,6.307-28.889,17.941c-2.231,5.604-1.325,13.069-1.325,18.986 c0,16.951,0,33.901,0,50.851c0,0.267,0,0.533,0,0.798C357.783,405.04,366.647,405.04,366.647,399.322L366.647,399.322z"/></g></g><g><path fill="#1D2C33" d="M476.825,233.423v25.599c0,14.538-11.921,26.323-26.458,26.323H428.43 c-14.538,0-26.323-11.785-26.323-26.323v-25.599"/></g><g><path fill="#1D2C33" d="M457.829,261.284v24.198c0,7.268-5.644,13.794-12.913,13.794h-10.968c-7.268,0-12.845-6.526-12.845-13.794 v-24.198"/></g></g><g><g><g><path fill="#586875" d="M1316.24,508.918c0,12.408-10.06,22.467-22.467,22.467H836.976c-12.406,0-22.466-10.059-22.466-22.467 V224.356c0-12.408,10.06-22.466,22.466-22.466h456.798c12.407,0,22.467,10.058,22.467,22.466V508.918z"/></g><g><rect width="441.822" height="263.969" x="844.464" y="243.077" fill="#FFF"/></g><g><path fill="#1D2C33" d="M1359.299,505.176v16.848c0,12.407-12.554,22.466-24.963,22.466h-537.3 c-12.407,0-27.457-10.059-27.457-22.466v-16.848"/></g><g><circle cx="1065.22" cy="224.043" r="11.545" fill="#1D2C33"/></g></g><g><g><rect width="127.304" height="91.734" x="900.628" y="336.683" fill="#9DCB8D"/></g><g><path fill="#95B3C6" d="M1035.421,302.985c0,5.169-4.192,9.36-9.361,9.36H908.116c-5.171,0-9.359-4.191-9.359-9.36l0,0 c0-5.169,4.188-9.36,9.359-9.36h117.943C1031.229,293.625,1035.421,297.816,1035.421,302.985L1035.421,302.985z"/></g><g><path fill="#95B3C6" d="M1235.738,347.916c0,5.169-4.19,9.36-9.359,9.36h-146.027c-5.17,0-9.36-4.191-9.36-9.36l0,0 c0-5.169,4.19-9.361,9.36-9.361h146.027C1231.548,338.555,1235.738,342.747,1235.738,347.916L1235.738,347.916z"/></g><g><path fill="#95B3C6" d="M1235.738,387.23c0,5.17-4.19,9.361-9.359,9.361h-166.621c-5.17,0-9.359-4.191-9.359-9.361l0,0 c0-5.169,4.189-9.361,9.359-9.361h166.621C1231.548,377.869,1235.738,382.061,1235.738,387.23L1235.738,387.23z"/></g><g><path fill="#95B3C6" d="M1187.063,426.545c0,5.169-4.19,9.361-9.36,9.361h-117.945c-5.17,0-9.359-4.192-9.359-9.361l0,0 c0-5.169,4.189-9.36,9.359-9.36h117.945C1182.873,417.185,1187.063,421.376,1187.063,426.545L1187.063,426.545z"/></g><g><path fill="#95B3C6" d="M1235.738,465.86c0,5.169-4.19,9.361-9.359,9.361H908.116c-5.171,0-9.359-4.191-9.359-9.361l0,0 c0-5.169,4.188-9.36,9.359-9.36h318.263C1231.548,456.5,1235.738,460.69,1235.738,465.86L1235.738,465.86z"/></g><g><rect width="39.316" height="35.57" x="1099.072" y="449.011" fill="#FFF"/></g><g><rect width="22.465" height="35.57" x="1110.307" y="366.638" fill="#FFF"/></g><g><rect width="22.464" height="35.571" x="1179.576" y="329.194" fill="#FFF"/></g><g><rect width="22.466" height="35.57" x="971.768" y="443.395" fill="#FFF"/></g><g><rect width="441.822" height="26.209" x="844.464" y="243.077" fill="#CAD7E0"/></g><g><circle cx="924.029" cy="256.299" r="11.116" fill="#75D150"/></g><g><circle cx="894.075" cy="256.299" r="11.116" fill="#F7ED79"/></g><g><circle cx="864.121" cy="256.299" r="11.116" fill="#E26464"/></g></g></g><g><g><path fill="#1D2C33" d="M296.199,181.89H62.65c-11.196,0-19.65,9.076-19.65,20.273v601.215h272.849V202.163 C315.849,190.965,307.395,181.89,296.199,181.89z"/></g><g><g><path fill="#586875" d="M291.217,315.788c0,3.488-2.828,6.315-6.315,6.315H73.947c-3.487,0-6.315-2.828-6.315-6.315V273.47 c0-3.487,2.828-6.315,6.315-6.315h210.954c3.488,0,6.315,2.828,6.315,6.315V315.788z"/></g><g><path fill="#586875" d="M275.428,460.422H83.421c-3.488,0-6.315,2.828-6.315,6.315v336.641h204.637V466.737 C281.743,463.25,278.915,460.422,275.428,460.422z"/></g><g><circle cx="180.488" cy="677.753" r="42.495" fill="#1D2C33"/></g><g><path fill="#586875" d="M180.421,699.568c-12.157,0-22.048-9.891-22.048-22.047c0-7.39,3.675-14.25,9.832-18.356l2.102,3.153 c-5.1,3.399-8.144,9.083-8.144,15.203c0,10.066,8.191,18.256,18.259,18.256c10.067,0,18.258-8.189,18.258-18.256 c0-6.218-3.121-11.951-8.347-15.337l2.062-3.181c6.309,4.088,10.075,11.01,10.075,18.518 C202.468,689.678,192.578,699.568,180.421,699.568z"/></g><g><rect width="3.79" height="20.844" x="179.424" y="648.006" fill="#586875"/></g><g><circle cx="273.216" cy="245.365" r="8.527" fill="#586875"/></g><g><g><path fill="#1D2C33" d="M90.37,311.682c59.685,0,119.372,0,179.056,0c4.889,0,4.889-7.579,0-7.579 c-59.685,0-119.371,0-179.056,0C85.481,304.103,85.481,311.682,90.37,311.682L90.37,311.682z"/></g></g><g><path fill="#586875" d="M291.217,391.579c0,3.488-2.828,6.316-6.315,6.316H73.947c-3.487,0-6.315-2.828-6.315-6.316v-42.318 c0-3.488,2.828-6.315,6.315-6.315h210.954c3.488,0,6.315,2.828,6.315,6.315V391.579z"/></g><g><g><path fill="#1D2C33" d="M90.37,387.473c59.685,0,119.372,0,179.056,0c4.889,0,4.889-7.579,0-7.579 c-59.685,0-119.371,0-179.056,0C85.481,379.894,85.481,387.473,90.37,387.473L90.37,387.473z"/></g></g><g><path fill="#1D2C33" d="M264.689,527.714c0,2.603-2.108,4.711-4.709,4.711H102.658c-2.6,0-4.709-2.108-4.709-4.711v-32.265 c0-2.602,2.109-4.71,4.709-4.71H259.98c2.601,0,4.709,2.108,4.709,4.71V527.714z"/></g></g></g><g><g><path fill="#FFF" d="M738.458,255.209h-0.955c0.065-0.894,0.11-1.793,0.11-2.704c0-20.007-16.218-36.225-36.225-36.225 c-8.478,0-16.269,2.921-22.441,7.801c-9.19-20.753-29.952-35.24-54.11-35.24c-32.676,0-59.165,26.489-59.165,59.165 c0,2.524,0.176,5.005,0.482,7.446c-15.658,1.91-27.79,15.243-27.79,31.416c0,17.486,14.175,31.66,31.66,31.66h168.433 c17.484,0,31.66-14.174,31.66-31.66C770.118,269.384,755.942,255.209,738.458,255.209z"/></g><g><path fill="#D8E4EA" d="M508.267,283.07h0.76c-0.052,0-0.089-1.232-0.089-1.957c0-15.925,12.91-28.736,28.834-28.736 c6.749,0,12.951,2.373,17.863,6.258c7.315-16.519,23.842-28.026,43.072-28.026c26.01,0,47.095,21.098,47.095,47.107 c0,2.009-0.141,3.99-0.385,5.933c12.463,1.521,22.121,12.068,22.121,24.942c0,13.918-11.284,25.135-25.202,25.135H508.267 c-13.918,0-25.202-11.41-25.202-25.329C483.065,294.479,494.349,283.07,508.267,283.07z"/></g></g><g><g><path fill="#586875" d="M677.536,715.09h-35.459c0,17.398,6.336,33.31,16.809,45.582c6.312-4.865,14.118-8.867,22.97-11.674 C679.105,738.941,677.536,727.387,677.536,715.09z"/><path fill="#1D2C33" d="M658.25,766.758l-2.738-3.208c-11.522-13.506-17.869-30.716-17.869-48.46v-4.433h44.324v4.433 c0,11.459,1.439,22.78,4.162,32.738l1.125,4.105l-4.06,1.289c-8.212,2.604-15.682,6.396-21.604,10.96L658.25,766.758z M646.659,719.521c0.86,12.701,5.398,24.91,13.052,35.097c5.013-3.372,10.653-6.217,16.845-8.491 c-1.952-8.339-3.104-17.396-3.385-26.605H646.659z"/></g><g><path fill="#586875" d="M682.076,680.403c-8.737-2.748-16.464-6.655-22.75-11.407c-10.735,12.34-17.25,28.451-17.25,46.094h35.459 C677.536,702.47,679.192,690.64,682.076,680.403z"/><path fill="#1D2C33" d="M681.968,719.521h-44.324v-4.432c0-18.006,6.512-35.408,18.338-49.003l2.716-3.123L662,665.46 c5.983,4.523,13.185,8.13,21.407,10.715l4.104,1.291l-1.167,4.14c-2.862,10.154-4.375,21.732-4.375,33.484V719.521z M646.659,710.657h26.512c0.29-9.498,1.508-18.82,3.576-27.384c-6.086-2.222-11.647-4.993-16.606-8.275 C652.222,685.301,647.533,697.709,646.659,710.657z"/></g><g><path fill="#586875" d="M765.397,668.996c-6.286,4.752-14.014,8.659-22.75,11.407c2.885,10.236,4.54,22.066,4.54,34.687h34.193 h-34.193c0,12.297-1.568,23.852-4.317,33.908c8.85,2.809,16.656,6.809,22.969,11.674c10.473-12.272,16.809-28.184,16.809-45.582 C782.647,697.447,776.132,681.336,765.397,668.996z"/><path fill="#1D2C33" d="M766.474,766.758l-3.341-2.575c-5.923-4.563-13.392-8.354-21.604-10.96l-4.057-1.289l1.122-4.105 c2.722-9.958,4.162-21.279,4.162-32.738c0-11.749-1.513-23.328-4.374-33.484l-1.166-4.14l4.103-1.291 c8.221-2.586,15.423-6.191,21.405-10.715l3.302-2.496l2.717,3.123c11.825,13.595,18.337,30.999,18.337,49.003 c0,17.744-6.345,34.954-17.868,48.46L766.474,766.758z M748.169,746.127c6.191,2.275,11.831,5.119,16.844,8.491 c7.653-10.187,12.191-22.396,13.053-35.097h-26.514C751.272,728.731,750.12,737.787,748.169,746.127z M751.552,710.657h26.514 c-0.874-12.948-5.564-25.355-13.481-35.659c-4.96,3.282-10.519,6.053-16.606,8.275 C750.046,691.837,751.263,701.159,751.552,710.657z"/></g><g><path fill="#586875" d="M712.361,785.375c21.418,0,40.586-9.593,53.478-24.703c-6.313-4.865-14.119-8.865-22.969-11.674 C736.938,770.682,725.502,785.375,712.361,785.375z"/><path fill="#1D2C33" d="M712.361,789.808v-8.864c10.434,0,20.73-12.999,26.232-33.115l1.218-4.452l4.398,1.397 c9.318,2.957,17.506,7.125,24.335,12.39l3.689,2.843l-3.023,3.544C754.974,780.236,734.252,789.808,712.361,789.808z M745.798,754.709c-2.906,9.064-6.692,16.6-11.119,22.337c9.15-3.301,17.526-8.617,24.486-15.657 C755.163,758.809,750.646,756.551,745.798,754.709z"/></g><g><path fill="#586875" d="M712.361,785.375c-13.14,0-24.576-14.693-30.506-36.377c-8.852,2.807-16.659,6.809-22.97,11.674 C671.776,775.782,690.943,785.375,712.361,785.375z"/><path fill="#1D2C33" d="M712.361,789.808c-21.89,0-42.611-9.571-56.849-26.258l-3.023-3.544l3.689-2.843 c6.829-5.267,15.017-9.435,24.335-12.39l4.398-1.396l1.218,4.45c5.501,20.116,15.799,33.115,26.231,33.115V789.808z M665.557,761.389c6.961,7.04,15.338,12.356,24.488,15.656c-4.427-5.736-8.213-13.271-11.119-22.336 C674.078,756.549,669.56,758.809,665.557,761.389z"/></g><g><path fill="#586875" d="M712.361,644.805c12.982,0,24.297,14.343,30.286,35.599c8.736-2.748,16.464-6.655,22.75-11.407 C752.512,654.181,733.537,644.805,712.361,644.805z"/><path fill="#1D2C33" d="M739.621,686.001l-1.239-4.396c-5.541-19.664-15.756-32.368-26.021-32.368v-8.866 c21.616,0,42.165,9.372,56.381,25.716l3.115,3.581l-3.785,2.864c-6.796,5.136-14.902,9.208-24.095,12.099L739.621,686.001z M734.652,653.129c4.311,5.58,8.02,12.864,10.895,21.591c4.772-1.784,9.155-3.94,13.105-6.44 C751.791,661.492,743.587,656.351,734.652,653.129z"/></g><g><path fill="#586875" d="M712.361,644.805c-21.177,0-40.15,9.376-53.035,24.191c6.286,4.752,14.013,8.659,22.75,11.407 C688.064,659.149,699.381,644.805,712.361,644.805z"/><path fill="#1D2C33" d="M685.104,686.001l-4.358-1.37c-9.191-2.891-17.298-6.963-24.093-12.099l-3.786-2.864l3.115-3.581 c14.215-16.344,34.765-25.716,56.379-25.716v8.866c-10.266,0-20.479,12.704-26.019,32.368L685.104,686.001z M666.071,668.279 c3.95,2.5,8.334,4.656,13.105,6.442c2.876-8.729,6.584-16.013,10.894-21.593C681.137,656.351,672.933,661.492,666.071,668.279z"/></g><g><path fill="#586875" d="M682.076,680.403c-2.884,10.236-4.541,22.066-4.541,34.687h69.652c0-12.62-1.655-24.45-4.54-34.687 c-9.171,2.885-19.44,4.503-30.286,4.503C701.518,684.906,691.249,683.288,682.076,680.403z"/><path fill="#1D2C33" d="M751.62,719.521h-78.517v-4.432c0-12.553,1.627-24.962,4.707-35.889l1.239-4.397l4.357,1.371 c9.068,2.852,18.812,4.3,28.955,4.3c10.146,0,19.888-1.448,28.957-4.3l4.357-1.371l1.239,4.397 c3.078,10.928,4.705,23.338,4.705,35.889V719.521z M682.04,710.657h60.644c-0.277-8.588-1.362-16.997-3.187-24.733 c-8.625,2.267-17.731,3.415-27.136,3.415c-9.402,0-18.508-1.148-27.135-3.417C683.402,693.66,682.318,702.069,682.04,710.657z"/></g><g><path fill="#586875" d="M681.855,748.998c9.228-2.929,19.577-4.571,30.506-4.571c10.932,0,21.28,1.643,30.509,4.571 c2.749-10.057,4.317-21.611,4.317-33.908h-69.652C677.536,727.387,679.105,738.941,681.855,748.998z"/><path fill="#1D2C33" d="M745.928,754.618l-4.399-1.396c-9.122-2.895-18.935-4.363-29.167-4.363 c-10.231,0-20.044,1.469-29.166,4.363l-4.398,1.396l-1.218-4.451c-2.928-10.71-4.477-22.839-4.477-35.077v-4.433h78.517v4.433 c0,12.238-1.547,24.366-4.476,35.076L745.928,754.618z M712.361,739.994c9.479,0,18.649,1.163,27.326,3.464 c1.709-7.509,2.729-15.646,2.996-23.937H682.04c0.269,8.293,1.288,16.429,2.997,23.937 C693.713,741.157,702.883,739.994,712.361,739.994z"/></g><g><path fill="#586875" d="M681.855,748.998c5.931,21.684,17.366,36.377,30.506,36.377c13.141,0,24.576-14.693,30.509-36.377 c-9.229-2.929-19.577-4.571-30.509-4.571C701.432,744.427,691.083,746.069,681.855,748.998z"/><path fill="#1D2C33" d="M712.361,789.808c-14.99,0-27.993-14.818-34.782-39.641l-1.123-4.107l4.058-1.286 c9.99-3.171,20.705-4.779,31.847-4.779c11.144,0,21.858,1.608,31.849,4.779l4.058,1.286l-1.123,4.107 C740.354,774.989,727.353,789.808,712.361,789.808z M687.375,752.008c5.722,17.718,15.296,28.936,24.987,28.936 c9.691,0,19.265-11.218,24.988-28.936c-7.917-2.09-16.302-3.148-24.988-3.148S695.291,749.918,687.375,752.008z"/></g><g><path fill="#586875" d="M712.361,644.805c-12.98,0-24.297,14.345-30.285,35.599c9.173,2.885,19.441,4.503,30.285,4.503 c10.846,0,21.115-1.618,30.286-4.503C736.658,659.147,725.344,644.805,712.361,644.805z"/><path fill="#1D2C33" d="M712.361,689.339c-11.047,0-21.683-1.583-31.615-4.708l-4.103-1.291l1.167-4.139 c6.851-24.314,19.768-38.83,34.551-38.83c14.784,0,27.702,14.516,34.554,38.83l1.166,4.139l-4.104,1.291 C734.047,687.756,723.409,689.339,712.361,689.339z M687.637,677.39c7.844,2.048,16.141,3.085,24.725,3.085 c8.586,0,16.882-1.037,24.727-3.085c-5.745-17.245-15.213-28.152-24.727-28.152C702.85,649.237,693.383,660.145,687.637,677.39z"/></g></g><g><g><circle cx="431.456" cy="742.907" r="54.139" fill="#CAD7E0"/><path fill="#586875" d="M491.926,742.907c0,33.345-27.126,60.471-60.471,60.471c-33.345,0-60.471-27.126-60.471-60.471 c0-33.343,27.126-60.471,60.471-60.471C464.8,682.437,491.926,709.564,491.926,742.907z M383.649,742.907 c0,26.36,21.446,47.807,47.807,47.807s47.807-21.446,47.807-47.807s-21.446-47.807-47.807-47.807S383.649,716.547,383.649,742.907 z"/></g><g><g><path fill="#CAD7E0" d="M406.761,760.638c-9.792-9.793-9.792-25.667,0-35.46"/></g><g><g><path fill="#FFF" d="M409.895,757.503c-7.891-8.467-7.891-20.725,0-29.192c3.892-4.175-2.362-10.457-6.268-6.267 c-11.234,12.055-11.234,29.672,0,41.727C407.532,767.961,413.787,761.679,409.895,757.503L409.895,757.503z"/></g></g></g><g><line x1="484.961" x2="520.42" y1="742.591" y2="742.591" fill="#CAD7E0"/><rect width="35.459" height="12.665" x="484.961" y="736.258" fill="#586875"/></g><g><path fill="#1D2C33" d="M571.077,728.66c7.694,0,13.931,6.237,13.931,13.931l0,0c0,7.693-6.237,13.931-13.931,13.931h-44.324 c-7.693,0-13.931-6.237-13.931-13.931l0,0c0-7.693,6.237-13.931,13.931-13.931H571.077z"/></g></g><g><g><g><path fill="#1D2C33" d="M1029.038,639.712c-31.994,31.994-63.986,63.987-95.98,95.98c1.512,0,3.021,0,4.534,0 c-31.994-31.993-63.988-63.986-95.982-95.98c-2.925-2.926-7.459,1.608-4.533,4.533c31.994,31.995,63.988,63.987,95.981,95.98 c1.236,1.235,3.299,1.235,4.534,0c31.993-31.993,63.986-63.985,95.979-95.98C1036.496,641.32,1031.963,636.786,1029.038,639.712 L1029.038,639.712z"/></g></g><g><circle cx="837.879" cy="639.946" r="33.845" fill="#FFF"/></g><g><circle cx="934.626" cy="739.054" r="33.844" fill="#586875"/></g><g><g><path fill="#1D2C33" d="M1222.532,639.712c-31.993,31.994-63.987,63.987-95.979,95.98c1.511,0,3.021,0,4.532,0 c-31.993-31.993-63.986-63.986-95.981-95.98c-2.925-2.926-7.46,1.608-4.533,4.533c31.995,31.995,63.987,63.987,95.982,95.98 c1.234,1.235,3.298,1.235,4.532,0c31.994-31.993,63.986-63.985,95.98-95.98C1229.991,641.32,1225.459,636.786,1222.532,639.712 L1222.532,639.712z"/></g></g><g><g><path fill="#1D2C33" d="M1223.301,644.243c31.992,31.993,63.987,63.986,95.981,95.979c2.925,2.925,7.457-1.608,4.532-4.533 c-31.993-31.993-63.987-63.985-95.981-95.979C1224.906,636.784,1220.374,641.317,1223.301,644.243L1223.301,644.243z"/></g></g><g><circle cx="1033.732" cy="639.946" r="33.844" fill="#1D2C33"/></g><g><path fill="#1D2C33" d="M1355.459,739.054c0,18.69-15.154,33.844-33.843,33.844c-18.692,0-33.847-15.153-33.847-33.844 c0-18.691,15.154-33.845,33.847-33.845C1340.305,705.209,1355.459,720.362,1355.459,739.054z"/></g><g><circle cx="1227.228" cy="639.946" r="33.844" fill="#586875"/></g><g><path fill="#FFF" d="M1161.965,739.054c0,18.69-15.155,33.844-33.844,33.844c-18.692,0-33.846-15.153-33.846-33.844 c0-18.691,15.153-33.845,33.846-33.845C1146.81,705.209,1161.965,720.362,1161.965,739.054z"/></g></g><g><g><g><path fill="#1D2C33" d="M367.366,457.333c-4.243,0-7.684,3.44-7.684,7.684v182.5c0,4.244,3.441,7.685,7.684,7.685h182.502 c4.242,0,7.683-3.44,7.683-7.685V509.533l-52.2-52.2H367.366z"/></g></g><g><rect width="97.915" height="53.036" x="388.241" y="457.333" fill="#6D6E71"/></g><g><path fill="#1D2C33" d="M477.996,492.671c0,1.889-1.531,3.42-3.419,3.42h-5.401c-1.889,0-3.419-1.531-3.419-3.42v-23.76 c0-1.888,1.531-3.419,3.419-3.419h5.401c1.889,0,3.419,1.531,3.419,3.419V492.671z"/></g><g><path fill="#6D6E71" d="M386.201,638.959c0,1.084-0.88,1.964-1.964,1.964h-8.312c-1.083,0-1.964-0.88-1.964-1.964v-8.312 c0-1.085,0.88-1.964,1.964-1.964h8.312c1.083,0,1.964,0.879,1.964,1.964V638.959z"/></g><g><path fill="#6D6E71" d="M543.272,638.959c0,1.084-0.88,1.964-1.964,1.964h-8.312c-1.083,0-1.963-0.88-1.963-1.964v-8.312 c0-1.085,0.88-1.964,1.963-1.964h8.312c1.083,0,1.964,0.879,1.964,1.964V638.959z"/></g><g><circle cx="457.639" cy="564.086" r="32.001" fill="#6D6E71"/></g><g><path fill="#1D2C33" d="M535.113,564.354c0,1.73-1.405,3.133-3.136,3.133h-65.125c-1.731,0-3.135-1.402-3.135-3.133v-1.893 c0-1.73,1.404-3.134,3.135-3.134h65.125c1.73,0,3.136,1.403,3.136,3.134V564.354z"/></g><g><path fill="#FFF" d="M508.594,612.363c0,2.254-1.827,4.08-4.079,4.08h-89.756c-2.252,0-4.08-1.826-4.08-4.08l0,0 c0-2.252,1.827-4.079,4.08-4.079h89.756C506.767,608.284,508.594,610.111,508.594,612.363L508.594,612.363z"/></g><g><path fill="#FFF" d="M486.155,630.724c0,2.253-1.827,4.079-4.08,4.079h-53.037c-2.253,0-4.08-1.826-4.08-4.079l0,0 c0-2.254,1.827-4.079,4.08-4.079h53.037C484.329,626.645,486.155,628.47,486.155,630.724L486.155,630.724z"/></g></g><g><g><g><path fill="#6D6E71" d="M612.678,375.772v9.12c-8.964,1.39-17.237,4.857-24.333,9.877l-6.58-6.58 c-1.344-1.344-3.522-1.344-4.866,0l-8.323,8.324c-1.344,1.342-1.344,3.521,0,4.866l6.471,6.472 c-5.134,7.018-8.713,15.242-10.245,24.167H555.5c-1.901,0-3.441,1.541-3.441,3.44v11.771c0,1.9,1.54,3.441,3.441,3.441h9.128 c1.38,8.967,4.84,17.244,9.854,24.346l-6.564,6.564c-1.345,1.344-1.345,3.523,0,4.867l8.323,8.322 c1.344,1.345,3.522,1.345,4.866,0l6.443-6.442c7.269,5.33,15.829,9.001,25.128,10.443v9.078c0,1.899,1.54,3.439,3.441,3.439 h11.771c1.9,0,3.441-1.54,3.441-3.439v-9.23c8.95-1.527,17.194-5.11,24.229-10.256l6.409,6.408c1.344,1.345,3.522,1.345,4.866,0 l8.323-8.322c1.344-1.345,1.343-3.523,0-4.867l-6.517-6.517c5.031-7.113,8.503-15.407,9.888-24.394h9.048 c1.899,0,3.44-1.542,3.44-3.441v-11.771c0-1.9-1.541-3.44-3.44-3.44h-9.223c-1.536-8.945-5.126-17.186-10.279-24.216l6.423-6.423 c1.344-1.345,1.344-3.523,0-4.866l-8.323-8.324c-1.344-1.342-3.522-1.342-4.867,0l-6.545,6.546 c-6.858-4.844-14.817-8.222-23.433-9.69v-9.273c0-1.902-1.541-3.441-3.441-3.441h-11.771 C614.218,372.332,612.678,373.871,612.678,375.772z M655.64,441.832c0,18.811-15.25,34.061-34.062,34.061 c-18.812,0-34.061-15.25-34.061-34.061c0-18.812,15.25-34.062,34.061-34.062C640.39,407.771,655.64,423.02,655.64,441.832z"/></g></g><g><g><path fill="#1D2C33" d="M681.69,483.554v7.467c-6.528,1.141-13.884,3.979-19.694,8.089l-5.271-5.389 c-1.102-1.1-2.827-1.1-3.927,0l-6.786,6.816c-1.1,1.099-1.087,2.882,0.014,3.984l5.305,4.998 c-4.204,5.748-7.126,12.961-8.38,19.49h-7.618c-1.557,0-3.072,1.858-3.072,3.415v9.637c0,1.557,1.515,2.803,3.072,2.803h7.473 c1.131,7.46,3.963,14.127,8.07,19.943l-5.376,5.378c-1.101,1.101-1.101,2.888,0,3.986l6.814,6.815 c1.101,1.101,2.884,1.101,3.984,0.001l5.046-5.274c5.95,4.363,12.883,7.37,20.344,8.55v7.433c0,1.557,1.722,2.596,3.278,2.596 h9.636c1.558,0,2.94-1.039,2.94-2.596v-7.556c7.46-1.25,14.019-4.185,19.778-8.398l5.217,5.247c1.101,1.101,2.87,1.101,3.968,0 l6.81-6.815c1.101-1.1,1.095-2.884-0.004-3.983l-5.338-5.345c4.12-5.824,6.96-12.521,8.094-19.981h7.407 c1.557,0,2.563-1.246,2.563-2.803v-9.637c0-1.557-1.007-3.415-2.563-3.415h-7.55c-1.259-6.529-4.197-13.773-8.417-19.528 l5.26-5.11c1.1-1.102,1.1-2.81,0-3.91l-6.814-6.776c-1.1-1.1-2.885-1.082-3.985,0.019l-5.299,5.368 c-5.615-3.965-11.666-6.722-19.126-7.925v-7.593c0-1.556-1.382-3.04-2.94-3.04h-9.636 C683.413,480.514,681.69,481.998,681.69,483.554z M717.328,537.643c0,15.403-12.486,27.889-27.89,27.889 c-15.402,0-27.889-12.485-27.889-27.889c0-15.402,12.487-27.889,27.889-27.889C704.842,509.754,717.328,522.24,717.328,537.643z"/></g></g></g></svg>